<?xml version="1.0" encoding="utf-8"?>
<!-- Generator: Adobe Illustrator 19.0.0, SVG Export Plug-In . SVG Version: 6.00 Build 0)  -->
<svg version="1.1" id="Layer_1" xmlns="http://www.w3.org/2000/svg" xmlns:xlink="http://www.w3.org/1999/xlink" x="0px" y="0px"
	 viewBox="0 0 1280 800" style="enable-background:new 0 0 1280 800;" xml:space="preserve">
<style type="text/css">
	.st0{display:none;}
	.st1{fill:#FFFFFF;}
	.st2{display:inline;}
</style>
<path id="XMLID_40_" class="st0" d="M734.4,312.2c-7.5-4.3-14.8-8.6-22.2-12.9c1.3-2.5,2.6-4.9,3.8-7.4c3.7,2,7.3,3.9,10.9,5.8
	c11.4,6.1,22.9,12.3,34.3,18.4c0.6,0.3,0.8,0.7,0.8,1.3c-0.2,5.1-0.4,10.1-0.5,15.2c-0.3,8.6-0.6,17.1-0.9,25.7
	c-0.1,3-0.2,6.1-0.3,9.1c0,0.4-0.1,0.8-0.1,1.2c-2.8,0-5.4,0-8.2,0c0-8.7,0-17.1,0-25.8c-0.4,0.2-0.7,0.3-1,0.4
	c-20,8.8-39.9,17.6-59.9,26.4c-0.6,0.3-0.8,0.6-0.8,1.2c0,10.9,0,21.7,0,32.6c0,0.6,0.2,0.9,0.8,1.1c20,8.8,40.1,17.6,60.1,26.5
	c0.3,0.1,0.5,0.2,0.9,0.3c0-8.6,0-17.1,0-25.8c2.7,0,5.4,0,8.2,0c0,0.2,0.1,0.5,0.1,0.9c0.2,6.9,0.4,13.8,0.7,20.7
	c0.3,8.8,0.6,17.5,0.9,26.3c0,1.1,0.1,2.3,0.1,3.4c0,0.4-0.2,0.9-0.5,1.1c-15,8.1-30.1,16.1-45.1,24.2c-0.1,0-0.1,0-0.3,0.1
	c-1.3-2.4-2.5-4.8-3.8-7.3c7.4-4.3,14.7-8.5,22.4-13c-0.3-0.1-0.6-0.2-0.7-0.3c-17.8-13.1-35.7-26.1-53.5-39.2
	c-0.5-0.4-0.8-0.3-1.4,0c-9.4,5.5-18.9,11-28.4,16.4c-0.6,0.3-0.8,0.7-0.7,1.4c0.8,7.3,1.7,14.5,2.5,21.8c0.8,7.1,1.6,14.3,2.4,21.4
	c0.8,7.1,1.6,14.2,2.4,21.3c0.1,0.6,0.1,1.1,0.2,1.8c7.4-4.3,14.8-8.6,22.2-12.9c1.5,2.4,2.9,4.7,4.4,7.1c-1,0.6-1.9,1.2-2.8,1.8
	c-13.4,8.4-26.9,16.8-40.3,25.3c-0.7,0.4-1.1,0.4-1.8,0c-14.2-8.8-28.5-17.6-42.7-26.5c-0.3-0.2-0.5-0.3-0.9-0.6
	c1.5-2.4,2.9-4.7,4.4-7.1c7.5,4.3,15,8.6,22.5,12.9c0.4-3.7,0.8-7.3,1.2-10.9c0.8-7.6,1.6-15.1,2.5-22.7c0.8-7.5,1.6-14.9,2.4-22.4
	c0.4-3.6,0.8-7.2,1.2-10.9c0.1-0.6-0.1-0.9-0.6-1.2c-9.4-5.4-18.8-10.8-28.2-16.2c-0.4-0.2-0.7-0.3-1.2,0
	c-17.9,13.1-35.8,26.3-53.7,39.4c-0.1,0.1-0.2,0.1-0.5,0.3c7.5,4.4,14.8,8.8,22.3,13.2c-1.4,2.5-2.7,4.9-4.1,7.4c-2-1.1-4-2.2-6-3.2
	c-12.9-7-25.8-13.9-38.8-20.9c-0.7-0.4-0.9-0.8-0.9-1.6c0.3-8.6,0.5-17.1,0.7-25.7c0.2-8.2,0.5-16.4,0.7-24.5c0-0.3,0-0.5,0.1-0.7
	c2.8,0,5.6,0,8.5,0c0,8.7,0,17.2,0,25.8c0.4-0.1,0.6-0.2,0.9-0.3c20.1-8.8,40.1-17.7,60.2-26.5c0.6-0.2,0.7-0.6,0.7-1.2
	c0-11,0-21.9,0-32.9c0-0.7-0.2-0.9-0.8-1.2c-20-8.8-40-17.6-60-26.4c-0.3-0.1-0.5-0.2-0.9-0.3c0,8.6,0,17.1,0,25.7
	c-2.9,0.1-5.6,0.2-8.5,0.3c-0.1-2.2-0.1-4.3-0.2-6.5c-0.2-8.4-0.5-16.9-0.7-25.3c-0.2-5.9-0.2-11.8-0.5-17.7c-0.1-2,0.6-2.8,2.2-3.7
	c14.2-7.7,28.4-15.4,42.5-23.1c0.3-0.2,0.6-0.3,1-0.5c1.4,2.4,2.7,4.9,4.1,7.4c-7.4,4.3-14.7,8.5-22.2,12.9c0.3,0.3,0.6,0.5,0.9,0.7
	c17.5,12.9,35,25.7,52.5,38.6c0.6,0.4,0.9,0.4,1.5,0.1c9.5-5.4,18.9-10.9,28.4-16.3c0.7-0.4,0.9-0.8,0.8-1.6
	c-0.7-6.2-1.4-12.4-2-18.6c-0.7-6.8-1.5-13.6-2.2-20.4c-0.7-6.8-1.5-13.6-2.2-20.5c-0.2-2.1-0.5-4.2-0.7-6.5
	c-7.5,4.3-15,8.6-22.5,12.9c-1.5-2.3-2.9-4.7-4.4-7c0.3-0.2,0.5-0.4,0.7-0.5c14.3-8.9,28.5-17.8,42.8-26.7c0.5-0.3,0.9-0.4,1.4,0
	c14.3,9,28.7,17.9,43.1,26.8c0.2,0.1,0.3,0.2,0.5,0.4c-1.5,2.3-2.9,4.7-4.4,7.1c-7.4-4.3-14.8-8.6-22.2-12.9
	c-0.4,3.7-0.8,7.3-1.2,10.9c-0.8,7.5-1.6,14.9-2.4,22.4c-0.7,6.8-1.5,13.6-2.2,20.4c-0.5,4.2-0.9,8.3-1.4,12.5
	c-0.1,0.7,0.2,1,0.7,1.4c9.4,5.4,18.9,10.9,28.3,16.4c0.6,0.4,1,0.3,1.5-0.1c17.4-12.8,34.8-25.5,52.3-38.2
	C733.4,312.9,733.8,312.6,734.4,312.2z"/>
<g id="XMLID_1_">
	<g id="XMLID_120_">
		<path id="XMLID_132_" d="M323.1,414.8c10.5,0,21.1,0,32,0c0,1,0,1.9,0,2.7c0,49.1,0,98.3,0,147.4c0,1.9,0.6,2.9,2.2,3.9
			c43,24.8,86,49.6,128.9,74.4c0.5,0.3,1,0.6,1.7,1c-5.4,9.2-10.8,18.4-16.3,27.8c-0.6-0.3-1.1-0.5-1.6-0.8
			c-48.3-27.9-96.5-55.7-144.8-83.6c-0.7-0.4-1.4-0.7-2.1-1C323.1,529.3,323.1,472.1,323.1,414.8z"/>
		<path id="XMLID_131_" d="M642.8,34.1c4.3,2.5,8.5,5.1,12.8,7.6C700,67.4,744.4,93,788.8,118.6c0.6,0.4,1.2,0.7,2,1.2
			c-5.5,9.1-10.8,18.1-16.3,27.2c-4.5-2.6-8.9-5.1-13.3-7.6c-39.2-22.5-78.3-45.1-117.5-67.6c-1.2-0.7-2-0.4-3,0.2
			c-32.4,18.7-64.9,37.3-97.3,56c-10.4,6-20.7,11.9-31.1,17.9c-0.7,0.4-1.4,0.8-2.2,1.2c-5.5-9.3-10.8-18.5-16.3-27.8
			c4.8-2.7,9.4-5.4,14.1-8.1c44.1-25.3,88.2-50.5,132.3-75.8c0.5-0.3,1-0.8,1.5-1.2C642,34.1,642.4,34.1,642.8,34.1z"/>
		<path id="XMLID_130_" d="M323.1,217.9c3.4-1.9,6.8-3.7,10.2-5.7c45.4-26.2,90.9-52.5,136.3-78.7c0.6-0.3,1.2-0.6,1.9-1.1
			c5.4,9,10.8,18,16.3,27.2c-0.9,0.6-1.8,1.1-2.7,1.6c-42.7,24.7-85.5,49.4-128.2,74c-1.5,0.9-1.9,1.8-1.9,3.4
			c0,49.1,0,98.3,0,147.4c0,0.9,0,1.7,0,2.8c-10.8,0-21.4,0-32,0C323.1,331.9,323.1,274.9,323.1,217.9z"/>
		<path id="XMLID_129_" d="M774.5,656.9c5.5,9.3,10.8,18.5,16.3,27.8c-0.7,0.4-1.3,0.8-1.9,1.2c-48.1,27.8-96.2,55.5-144.2,83.3
			c-1.8,1-3,1-4.8,0c-47.9-27.8-95.9-55.4-143.9-83.1c-0.7-0.4-1.4-0.8-2.2-1.3c5.5-9.3,10.9-18.5,16.3-27.8
			c1.1,0.7,2.2,1.2,3.2,1.8c42.3,24.5,84.6,49,126.9,73.6c1.6,0.9,2.7,0.9,4.3,0c42.7-24.8,85.4-49.6,128.1-74.3
			C773.1,657.6,773.6,657.3,774.5,656.9z"/>
		<path id="XMLID_128_" d="M928.9,415c10.7,0,21.2,0,32,0c0,0.7,0,1.4,0,2.1c0,55.8,0,111.6,0,167.4c0,1.3-0.3,2.1-1.6,2.8
			c-48.2,27.9-96.5,55.9-144.7,83.8c-0.5,0.3-0.9,0.5-1.7,0.9c-5.4-9.3-10.9-18.5-16.3-27.8c4.6-2.7,9.1-5.3,13.6-7.9
			c38.9-22.6,77.8-45.1,116.8-67.7c1.4-0.8,2-1.7,2-3.4c-0.1-49.2,0-98.4,0-147.7C928.9,416.7,928.9,415.9,928.9,415z"/>
		<path id="XMLID_127_" d="M960.9,388.9c-10.7,0-21.2,0-32,0c0-0.9,0-1.7,0-2.6c0-49.2,0-98.5,0-147.7c0-1.7-0.5-2.6-2-3.4
			c-42.8-24.6-85.6-49.2-128.4-73.8c-0.6-0.3-1.1-0.7-1.9-1.1c5.4-9.2,10.8-18.4,16.3-27.8c0.7,0.4,1.3,0.7,1.9,1.1
			c48.1,27.9,96.2,55.8,144.3,83.6c1.1,0.7,1.7,1.3,1.7,2.8c0,55.7,0,111.3,0,167C960.9,387.5,960.9,388.1,960.9,388.9z"/>
	</g>
	<g id="XMLID_98_">
		<g id="XMLID_106_">
			<path id="XMLID_112_" class="st1" d="M321.1,412.8c10.5,0,21.1,0,32,0c0,1,0,1.9,0,2.7c0,49.1,0,98.3,0,147.4
				c0,1.9,0.6,2.9,2.2,3.9c43,24.8,86,49.6,128.9,74.4c0.5,0.3,1,0.6,1.7,1c-5.4,9.2-10.8,18.4-16.3,27.8c-0.6-0.3-1.1-0.5-1.6-0.8
				c-48.3-27.9-96.5-55.7-144.8-83.6c-0.7-0.4-1.4-0.7-2.1-1C321.1,527.3,321.1,470.1,321.1,412.8z"/>
			<path id="XMLID_111_" class="st1" d="M640.8,32.1c4.3,2.5,8.5,5.1,12.8,7.6C698,65.4,742.4,91,786.8,116.6c0.6,0.4,1.2,0.7,2,1.2
				c-5.5,9.1-10.8,18.1-16.3,27.2c-4.5-2.6-8.9-5.1-13.3-7.6c-39.2-22.5-78.3-45.1-117.5-67.6c-1.2-0.7-2-0.4-3,0.2
				c-32.4,18.7-64.9,37.3-97.3,56c-10.4,6-20.7,11.9-31.1,17.9c-0.7,0.4-1.4,0.8-2.2,1.2c-5.5-9.3-10.8-18.5-16.3-27.8
				c4.8-2.7,9.4-5.4,14.1-8.1c44.1-25.3,88.2-50.5,132.3-75.8c0.5-0.3,1-0.8,1.5-1.2C640,32.1,640.4,32.1,640.8,32.1z"/>
			<path id="XMLID_110_" class="st1" d="M321.1,215.9c3.4-1.9,6.8-3.7,10.2-5.7c45.4-26.2,90.9-52.5,136.3-78.7
				c0.6-0.3,1.2-0.6,1.9-1.1c5.4,9,10.8,18,16.3,27.2c-0.9,0.6-1.8,1.1-2.7,1.6c-42.7,24.7-85.5,49.4-128.2,74
				c-1.5,0.9-1.9,1.8-1.9,3.4c0,49.1,0,98.3,0,147.4c0,0.9,0,1.7,0,2.8c-10.8,0-21.4,0-32,0C321.1,329.9,321.1,272.9,321.1,215.9z"
				/>
			<path id="XMLID_109_" class="st1" d="M772.5,654.9c5.5,9.3,10.8,18.5,16.3,27.8c-0.7,0.4-1.3,0.8-1.9,1.2
				c-48.1,27.8-96.2,55.5-144.2,83.3c-1.8,1-3,1-4.8,0c-47.9-27.8-95.9-55.4-143.9-83.1c-0.7-0.4-1.4-0.8-2.2-1.3
				c5.5-9.3,10.9-18.5,16.3-27.8c1.1,0.7,2.2,1.2,3.2,1.8c42.3,24.5,84.6,49,126.9,73.6c1.6,0.9,2.7,0.9,4.3,0
				c42.7-24.8,85.4-49.6,128.1-74.3C771.1,655.6,771.6,655.3,772.5,654.9z"/>
			<path id="XMLID_108_" class="st1" d="M926.9,413c10.7,0,21.2,0,32,0c0,0.7,0,1.4,0,2.1c0,55.8,0,111.6,0,167.4
				c0,1.3-0.3,2.1-1.6,2.8c-48.2,27.9-96.5,55.9-144.7,83.8c-0.5,0.3-0.9,0.5-1.7,0.9c-5.4-9.3-10.9-18.5-16.3-27.8
				c4.6-2.7,9.1-5.3,13.6-7.9c38.9-22.6,77.8-45.1,116.8-67.7c1.4-0.8,2-1.7,2-3.4c-0.1-49.2,0-98.4,0-147.7
				C926.9,414.7,926.9,413.9,926.9,413z"/>
			<path id="XMLID_107_" class="st1" d="M958.9,386.9c-10.7,0-21.2,0-32,0c0-0.9,0-1.7,0-2.6c0-49.2,0-98.5,0-147.7
				c0-1.7-0.5-2.6-2-3.4c-42.8-24.6-85.6-49.2-128.4-73.8c-0.6-0.3-1.1-0.7-1.9-1.1c5.4-9.2,10.8-18.4,16.3-27.8
				c0.7,0.4,1.3,0.7,1.9,1.1c48.1,27.9,96.2,55.8,144.3,83.6c1.1,0.7,1.7,1.3,1.7,2.8c0,55.7,0,111.3,0,167
				C958.9,385.5,958.9,386.1,958.9,386.9z"/>
		</g>
	</g>
</g>
<g id="Layer_2" class="st0">
	<polygon id="XMLID_6_" class="st2" points="871.9,237.4 755.9,170.6 640,103.8 640,105.3 524.1,172.2 408.1,239 511,298.4 511,242 
		640,242 769,242 769,296.9 	"/>
</g>
<g id="XMLID_11_">
	<g id="XMLID_61_">
		<path id="XMLID_66_" d="M868.6,409.9c0.3-11.5,0.6-23,0.9-34.5c0.3-12.5,0.6-25.1,1-37.6c0-1.7-0.4-2.5-1.5-3.3
			c-21.5-15.1-42.9-30.3-64.4-45.4c-6.8-4.8-13.5-9.5-20.4-14.4c-2.4,6.1-4.8,12.1-7.2,18.3c13.9,10.6,27.7,21.1,41.7,31.9
			c-1,1-1.8,1.8-2.6,2.5c-8.2,7.9-16.4,15.8-24.6,23.8l-1.3,1.2c-24.1,23.2-48.1,46.4-72.1,69.6c-1,1-1.7,1.2-2.8,0.3
			c-17.6-13.5-35.3-27-53-40.5c-1.1-0.8-1.5-1.6-1.4-3.4c0.9-10.3,1.7-20.6,2.6-30.9c1.4-16.8,2.8-33.6,4.1-50.4
			c1.5-18.5,3.1-36.9,4.6-55.4c0.7-8.9,1.5-17.7,2.2-26.9c14,10.7,27.8,21.2,41.7,31.9c2.8-5.9,5.5-11.7,8.3-17.5
			c-0.4-0.4-0.7-0.6-1-0.9c-26.9-22.1-53.9-44.3-80.8-66.4c-1-0.8-1.6-0.7-2.6,0.1c-26.8,22-53.5,44-80.3,66
			c-0.4,0.4-0.8,0.8-1.3,1.3c2.8,5.9,5.5,11.6,8.3,17.4c14.1-10.7,28.1-21.2,42.3-31.9c0.5,5.6,0.9,10.8,1.3,16
			c1.4,16.9,2.8,33.8,4.2,50.7c1.4,16.8,2.8,33.6,4.2,50.4c1.3,15.4,2.5,30.8,3.8,46.1c0.2,1.9-0.2,3-1.5,4
			c-17.8,13.4-35.6,26.8-53.3,40.3c-1.1,0.8-1.8,0.9-2.9-0.2c-23.5-22.8-47-45.7-70.6-68.5l-1.9-1.8c-8.7-8.4-17.3-16.8-26-25.3
			c-0.5-0.5-1-1-1.6-1.7c14-10.7,27.8-21.2,41.7-31.8c-2.6-6.2-5.2-12.2-7.8-18.2c-0.7,0.5-1.3,0.9-1.8,1.3
			c-26.6,19.1-53.1,38.3-79.8,57.2c-3,2.2-4.4,4.2-4.2,9.1c0.6,14.6,0.7,29.2,1,43.8c0.2,8.4,0.4,16.7,0.6,25.1l-38.2,29.1
			l133.4,101.2L643,642.7v-0.2l132.5-101.2l132.9-101.2L868.6,409.9z M567.6,445l37.3,27l37.3,27l37.3-27l37.3-27h41.4l-58,42.5
			l-58,42.5l-58-42.5l-58-42.5H567.6z M742.7,518.2l-100.4,73.2l-100.4-73.2L441.3,445h33.8l83.5,61.1l83.5,61.1l83.5-61.1
			l83.5-61.1h33.8L742.7,518.2z"/>
	</g>
	<g id="XMLID_52_">
		<path id="XMLID_57_" class="st1" d="M866.6,407.9c0.3-11.5,0.6-23,0.9-34.5c0.3-12.5,0.6-25.1,1-37.6c0-1.7-0.4-2.5-1.5-3.3
			c-21.5-15.1-42.9-30.3-64.4-45.4c-6.8-4.8-13.5-9.5-20.4-14.4c-2.4,6.1-4.8,12.1-7.2,18.3c13.9,10.6,27.7,21.1,41.7,31.9
			c-1,1-1.8,1.8-2.6,2.5c-8.2,7.9-16.4,15.8-24.6,23.8l-1.3,1.2c-24.1,23.2-48.1,46.4-72.1,69.6c-1,1-1.7,1.2-2.8,0.3
			c-17.6-13.5-35.3-27-53-40.5c-1.1-0.8-1.5-1.6-1.4-3.4c0.9-10.3,1.7-20.6,2.6-30.9c1.4-16.8,2.8-33.6,4.1-50.4
			c1.5-18.5,3.1-36.9,4.6-55.4c0.7-8.9,1.5-17.7,2.2-26.9c14,10.7,27.8,21.2,41.7,31.9c2.8-5.9,5.5-11.7,8.3-17.5
			c-0.4-0.4-0.7-0.6-1-0.9c-26.9-22.1-53.9-44.3-80.8-66.4c-1-0.8-1.6-0.7-2.6,0.1c-26.8,22-53.5,44-80.3,66
			c-0.4,0.4-0.8,0.8-1.3,1.3c2.8,5.9,5.5,11.6,8.3,17.4c14.1-10.7,28.1-21.2,42.3-31.9c0.5,5.6,0.9,10.8,1.3,16
			c1.4,16.9,2.8,33.8,4.2,50.7c1.4,16.8,2.8,33.6,4.2,50.4c1.3,15.4,2.5,30.8,3.8,46.1c0.2,1.9-0.2,3-1.5,4
			c-17.8,13.4-35.6,26.8-53.3,40.3c-1.1,0.8-1.8,0.9-2.9-0.2c-23.5-22.8-47-45.7-70.6-68.5l-1.9-1.8c-8.7-8.4-17.3-16.8-26-25.3
			c-0.5-0.5-1-1-1.6-1.7c14-10.7,27.8-21.2,41.7-31.8c-2.6-6.2-5.2-12.2-7.8-18.2c-0.7,0.5-1.3,0.9-1.8,1.3
			c-26.6,19.1-53.1,38.3-79.8,57.2c-3,2.2-4.4,4.2-4.2,9.1c0.6,14.6,0.7,29.2,1,43.8c0.2,8.4,0.4,16.7,0.6,25.1l-38.2,29.1
			l133.4,101.2L641,640.7v-0.2l132.5-101.2l132.9-101.2L866.6,407.9z M565.6,443l37.3,27l37.3,27l37.3-27l37.3-27h41.4l-58,42.5
			l-58,42.5l-58-42.5l-58-42.5H565.6z M740.7,516.2l-100.4,73.2l-100.4-73.2L439.3,443h33.8l83.5,61.1l83.5,61.1l83.5-61.1
			l83.5-61.1h33.8L740.7,516.2z"/>
	</g>
</g>
</svg>
